<svg aria-hidden="true" style="position: absolute; width: 0; height: 0; overflow: hidden;" version="1.1" xmlns="http://www.w3.org/2000/svg" xmlns:xlink="http://www.w3.org/1999/xlink">
<defs>
<symbol id="icon-facebook" viewBox="0 0 15 32">
<path d="M14.751 11.11h-4.569v-2.997c0-1.125 0.746-1.388 1.271-1.388 0.524 0 3.224 0 3.224 0v-4.947l-4.441-0.017c-4.929 0-6.051 3.69-6.051 6.051v3.298h-2.851v5.098h2.851c0 6.543 0 14.425 0 14.425h5.996c0 0 0-7.961 0-14.425h4.046l0.523-5.098z"></path>
</symbol>
<symbol id="icon-instagram" viewBox="0 0 30 32">
<path d="M14.969 8.097c-4.183 0-7.649 3.406-7.649 7.649s3.406 7.649 7.649 7.649c4.243 0 7.649-3.466 7.649-7.649s-3.466-7.649-7.649-7.649zM14.969 20.646c-2.689 0-4.9-2.211-4.9-4.9s2.211-4.9 4.9-4.9c2.689 0 4.9 2.211 4.9 4.9s-2.211 4.9-4.9 4.9z"></path>
<path d="M22.917 9.651c0.957 0 1.733-0.776 1.733-1.733s-0.776-1.733-1.733-1.733c-0.957 0-1.733 0.776-1.733 1.733s0.776 1.733 1.733 1.733z"></path>
<path d="M27.399 3.436c-1.554-1.613-3.765-2.45-6.274-2.45h-12.31c-5.199 0-8.665 3.466-8.665 8.665v12.25c0 2.57 0.837 4.781 2.51 6.394 1.613 1.554 3.765 2.331 6.215 2.331h12.191c2.569 0 4.721-0.837 6.274-2.331 1.613-1.553 2.45-3.765 2.45-6.334v-12.31c0-2.51-0.837-4.661-2.39-6.215zM27.040 21.961c0 1.852-0.538 3.346-1.614 4.362s-2.57 1.554-4.362 1.554h-12.191c-1.793 0-3.287-0.538-4.362-1.554-1.076-1.076-1.613-2.569-1.613-4.422v-12.25c0-1.793 0.538-3.287 1.613-4.362 1.016-1.016 2.57-1.554 4.362-1.554h12.31c1.793 0 3.287 0.538 4.362 1.613 1.016 1.076 1.613 2.57 1.613 4.303v12.31h-0.119z"></path>
</symbol>
<symbol id="icon-twitter" viewBox="0 0 39 32">
<path d="M36.962 4.427c-1.315 0.584-2.728 0.978-4.213 1.155 1.515-0.907 2.677-2.344 3.225-4.058-1.417 0.841-2.986 1.451-4.658 1.781-1.338-1.426-3.244-2.316-5.353-2.316-4.051 0-7.335 3.284-7.335 7.335 0 0.575 0.065 1.134 0.19 1.671-6.096-0.305-11.501-3.225-15.118-7.663-0.631 1.083-0.993 2.343-0.993 3.687 0 2.545 1.295 4.789 3.263 6.105-1.202-0.039-2.333-0.368-3.322-0.918-0.001 0.030-0.001 0.061-0.001 0.093 0 3.553 2.528 6.518 5.884 7.192-0.616 0.167-1.264 0.257-1.933 0.257-0.473 0-0.932-0.046-1.38-0.132 0.934 2.914 3.642 5.035 6.851 5.094-2.51 1.968-5.673 3.14-9.109 3.14-0.592 0-1.175-0.035-1.749-0.102 3.247 2.082 7.102 3.296 11.244 3.296 13.492 0 20.869-11.177 20.869-20.869 0-0.318-0.006-0.635-0.021-0.949 1.433-1.034 2.677-2.326 3.659-3.797z"></path>
</symbol>
</defs>
</svg>
