<svg aria-hidden="true" style="position:absolute;width:0;height:0;overflow:hidden" xmlns="http://www.w3.org/2000/svg"><defs><symbol id="icon-lock" viewBox="0 0 24 32"><path d="M20.423 11.456h-1.458V8.539c0-4.025-3.267-7.293-7.292-7.293S4.381 4.513 4.381 8.539v2.917H2.923a2.926 2.926 0 0 0-2.917 2.917v14.585a2.926 2.926 0 0 0 2.917 2.917h17.502a2.926 2.926 0 0 0 2.917-2.917V14.373a2.926 2.926 0 0 0-2.917-2.917zm-8.751 13.126c-1.604 0-2.917-1.313-2.917-2.917s1.313-2.917 2.917-2.917 2.917 1.313 2.917 2.917a2.926 2.926 0 0 1-2.917 2.917zM7.296 11.456V8.539c0-2.421 1.954-4.375 4.375-4.375s4.375 1.954 4.375 4.375v2.917H7.295z"/></symbol><symbol id="icon-yse" viewBox="0 0 47 32"><path d="M23.763 1.653c-10.049 0-18.631 6.25-22.108 15.073 3.477 8.823 12.059 15.073 22.108 15.073s18.631-6.25 22.108-15.073C42.394 7.903 33.812 1.653 23.763 1.653zm0 25.123c-5.547 0-10.049-4.502-10.049-10.049S18.216 6.678 23.763 6.678s10.049 4.502 10.049 10.049-4.502 10.049-10.049 10.049zm0-16.079c-3.336 0-6.029 2.693-6.029 6.029s2.693 6.029 6.029 6.029 6.029-2.693 6.029-6.029-2.693-6.029-6.029-6.029z"/></symbol><symbol id="icon-faq" viewBox="0 0 53 32"><path  d="M1.997 3.651 28.35 30.004M24.356 30.004 50.709 3.651"/></symbol><symbol id="icon-facebook" viewBox="0 0 15 32"><path d="M14.751 11.11h-4.569V8.113c0-1.125.746-1.388 1.271-1.388h3.224V1.778l-4.441-.017c-4.929 0-6.051 3.69-6.051 6.051v3.298H1.334v5.098h2.851v14.425h5.996V16.208h4.046l.523-5.098z"/></symbol><symbol id="icon-instagram" viewBox="0 0 30 32"><path d="M14.969 8.097c-4.183 0-7.649 3.406-7.649 7.649s3.406 7.649 7.649 7.649 7.649-3.466 7.649-7.649-3.466-7.649-7.649-7.649zm0 12.549c-2.689 0-4.9-2.211-4.9-4.9s2.211-4.9 4.9-4.9c2.689 0 4.9 2.211 4.9 4.9s-2.211 4.9-4.9 4.9zM22.917 9.651a1.733 1.733 0 1 0 0-3.466 1.733 1.733 0 0 0 0 3.466z"/><path d="M27.399 3.436c-1.554-1.613-3.765-2.45-6.274-2.45H8.815C3.616.986.15 4.452.15 9.651v12.25c0 2.57.837 4.781 2.51 6.394 1.613 1.554 3.765 2.331 6.215 2.331h12.191c2.569 0 4.721-.837 6.274-2.331 1.613-1.553 2.45-3.765 2.45-6.334V9.651c0-2.51-.837-4.661-2.39-6.215zm-.359 18.525c0 1.852-.538 3.346-1.614 4.362s-2.57 1.554-4.362 1.554H8.873c-1.793 0-3.287-.538-4.362-1.554-1.076-1.076-1.613-2.569-1.613-4.422V9.651c0-1.793.538-3.287 1.613-4.362 1.016-1.016 2.57-1.554 4.362-1.554h12.31c1.793 0 3.287.538 4.362 1.613 1.016 1.076 1.613 2.57 1.613 4.303v12.31h-.119z"/></symbol><symbol id="icon-twitter" viewBox="0 0 39 32"><path d="M36.962 4.427a14.622 14.622 0 0 1-4.213 1.155 7.349 7.349 0 0 0 3.225-4.058 14.69 14.69 0 0 1-4.658 1.781A7.322 7.322 0 0 0 25.963.989a7.335 7.335 0 0 0-7.335 7.335c0 .575.065 1.134.19 1.671C12.722 9.69 7.317 6.77 3.7 2.332a7.302 7.302 0 0 0-.993 3.687 7.332 7.332 0 0 0 3.263 6.105 7.31 7.31 0 0 1-3.322-.918l-.001.093a7.34 7.34 0 0 0 5.884 7.192 7.378 7.378 0 0 1-3.313.125 7.342 7.342 0 0 0 6.851 5.094 14.712 14.712 0 0 1-9.109 3.14c-.592 0-1.175-.035-1.749-.102a20.758 20.758 0 0 0 11.244 3.296c13.492 0 20.869-11.177 20.869-20.869 0-.318-.006-.635-.021-.949a14.877 14.877 0 0 0 3.659-3.797z"/></symbol></defs></svg>